<?xml version="1.0" standalone="no"?>
<!DOCTYPE svg PUBLIC "-//W3C//DTD SVG 20010904//EN"
 "http://www.w3.org/TR/2001/REC-SVG-20010904/DTD/svg10.dtd">
<svg version="1.0" xmlns="http://www.w3.org/2000/svg"
 width="1000.000000pt" height="750.000000pt" viewBox="0 0 1000.000000 750.000000"
 preserveAspectRatio="xMidYMid meet">

<g transform="translate(0.000000,750.000000) scale(0.100000,-0.100000)"
fill="#000000" stroke="none">
<path d="M0 3750 l0 -3750 5000 0 5000 0 0 3750 0 3750 -5000 0 -5000 0 0
-3750z m5015 2630 c17 -11 45 -31 64 -45 19 -14 47 -25 62 -25 l29 0 0 -68 c0
-118 -26 -132 -246 -132 -233 0 -422 -44 -638 -150 -126 -61 -512 -288 -586
-343 -96 -74 -482 -467 -543 -553 -71 -101 -149 -249 -183 -344 -46 -132 -64
-233 -100 -565 -30 -277 -40 -340 -61 -390 -13 -33 -30 -72 -36 -87 -10 -25 5
-173 41 -396 5 -31 3 -33 -21 -27 -49 13 -60 -61 -16 -101 17 -15 24 -16 39
-6 23 14 29 5 90 -149 84 -209 108 -245 289 -432 140 -143 366 -360 648 -620
l61 -57 48 10 c27 6 57 18 66 27 17 15 18 14 18 -10 0 -16 -10 -34 -27 -47
-33 -26 -35 -24 102 -90 123 -59 186 -75 385 -95 189 -19 309 -38 459 -71
l113 -25 107 20 c58 11 135 23 171 27 56 6 70 11 112 48 35 30 48 48 48 68 0
21 4 26 16 21 14 -5 16 0 12 30 -4 35 -3 36 15 19 10 -9 26 -29 35 -44 l16
-28 22 27 c19 24 24 26 38 14 14 -12 16 -10 16 17 0 39 15 49 30 21 12 -21 12
-21 31 10 16 27 24 31 64 31 43 0 45 -1 45 -30 0 -39 21 -39 70 0 l38 30 16
-25 c20 -30 61 -33 109 -9 94 48 541 365 820 581 87 68 160 123 163 123 4 0 4
-17 0 -37 l-5 -38 14 30 c8 17 14 38 15 48 0 15 6 17 28 13 35 -8 38 -5 104
85 53 71 143 158 153 147 8 -8 -70 -190 -143 -333 -77 -152 -190 -324 -296
-450 -59 -70 -76 -97 -76 -122 0 -19 -10 -44 -26 -62 -23 -27 -32 -31 -77 -31
-68 0 -102 -18 -102 -52 1 -22 -2 -25 -17 -17 -9 5 -27 9 -39 9 -37 0 -129
-33 -129 -46 0 -7 15 -31 34 -53 32 -38 55 -96 43 -107 -3 -3 -23 14 -45 37
l-39 42 -29 -20 c-16 -12 -75 -68 -131 -126 l-103 -104 0 -52 0 -51 -60 0
c-79 0 -100 -19 -100 -90 0 -30 -4 -50 -11 -50 -6 0 -33 24 -59 52 l-49 53
-87 -18 c-108 -22 -148 -41 -141 -67 7 -27 -16 -42 -48 -34 -15 4 -56 21 -90
39 -85 45 -161 61 -217 47 -33 -8 -55 -7 -96 3 -164 43 -372 46 -689 10 l-63
-8 0 37 c0 39 -2 41 -31 25 -16 -8 -31 -3 -82 29 -34 22 -137 78 -228 126
-144 75 -172 86 -216 86 -72 0 -170 33 -234 78 -88 63 -96 66 -229 72 -117 6
-129 8 -188 40 -109 58 -175 157 -218 329 -28 109 -44 139 -85 154 -22 9 -33
23 -45 62 -36 109 -107 282 -219 535 -150 339 -155 353 -155 457 l0 83 29 0
c43 0 46 23 18 147 -30 132 -82 273 -152 414 l-53 106 33 209 c50 323 72 413
125 531 47 104 86 151 280 343 158 156 190 193 205 235 52 144 64 159 339 417
221 208 209 201 354 199 l118 -2 19 43 c27 62 97 132 158 159 37 16 72 23 122
23 82 1 94 7 189 97 82 76 102 76 98 0 -2 -41 0 -51 10 -45 7 4 37 23 67 42
88 56 390 180 441 181 14 1 39 -8 55 -19z m1103 -170 c244 -58 489 -191 668
-363 92 -87 102 -101 366 -525 l272 -434 23 -177 c13 -97 26 -254 30 -348 4
-124 9 -173 18 -173 6 0 26 18 44 40 39 49 56 52 37 6 -34 -81 -85 -357 -87
-469 0 -39 -1 -40 -11 -17 -10 25 -4 255 9 330 l6 35 -22 -20 c-30 -26 -54
-10 -62 41 -5 31 -21 54 -80 115 -50 51 -88 101 -118 158 -41 79 -43 84 -32
126 28 113 -4 219 -82 274 -70 49 -97 85 -134 182 -27 71 -37 114 -41 177 -2
45 -6 82 -7 82 -2 0 -27 -11 -57 -25 -29 -14 -65 -25 -79 -25 -18 0 -106 57
-279 181 -304 217 -415 292 -582 392 -107 65 -134 77 -171 77 -67 0 -195 37
-255 73 -102 61 -141 132 -108 196 26 49 65 64 165 59 83 -3 87 -2 109 24 21
24 31 28 100 31 129 7 273 -2 360 -23z m-623 -1025 c188 -29 405 -89 573 -157
39 -16 72 -31 72 -31 0 -1 -7 -51 -15 -112 -9 -60 -18 -206 -22 -324 l-6 -213
-34 -15 c-46 -19 -116 -30 -234 -38 l-96 -7 -12 94 c-24 190 -70 304 -157 392
-99 101 -219 141 -424 140 -121 0 -143 -3 -215 -28 -329 -114 -514 -482 -515
-1026 -1 -635 233 -1129 585 -1239 121 -38 328 -35 407 5 55 27 98 75 112 125
21 69 29 276 17 416 -16 197 -49 234 -222 256 -68 8 -90 15 -94 28 -8 24 -25
177 -25 224 l0 40 571 0 571 0 -5 -125 c-2 -69 -8 -132 -11 -141 -5 -11 -25
-20 -52 -24 -105 -15 -124 -69 -124 -345 0 -202 12 -308 43 -400 l25 -70 -84
-51 c-483 -291 -1156 -352 -1659 -150 -451 182 -736 582 -795 1118 -16 145 -8
467 14 588 101 542 479 924 1037 1049 63 14 155 30 204 35 122 13 447 5 570
-14z"/>
<path d="M2830 2990 c11 -21 20 -48 20 -59 0 -34 23 -72 51 -87 l28 -14 -41
88 c-42 92 -55 112 -69 112 -5 0 0 -18 11 -40z"/>
<path d="M2735 3010 c-5 -9 49 -90 60 -90 2 0 -4 23 -13 50 -15 47 -33 63 -47
40z"/>
</g>
</svg>
